0
SECTION
2
HEADER
9
$ACADVER
1
AC1008
9
$UCSORG
10
0.0
20
0.0
30
0.0
9
$UCSXDIR
10
1.0
20
0.0
30
0.0
9
$TILEMODE
70
1
9
$UCSYDIR
10
0.0
20
1.0
30
0.0
9
$EXTMIN
10
-864.000000
20
-672.000000
30
-416.000000
9
$EXTMAX
10
992.000000
20
1056.000000
30
608.000000
0
ENDSEC
0
SECTION
2
TABLES
0
TABLE
2
LTYPE
70
1
0
LTYPE
2
CONTINUOUS
70
64
3
Solid line
72
65
73
0
40
0.0
0
ENDTAB
0
TABLE
2
LAYER
70
1
0
LAYER
2
0
70
0
62
7
6
CONTINUOUS
0
ENDTAB
0
TABLE
2
STYLE
70
1
0
STYLE
2
STANDARD
70
0
40
0.0
41
1.0
50
0.0
71
0
42
0.2
3
txt
4

0
ENDTAB
0
TABLE
2
UCS
70
0
0
ENDTAB
0
ENDSEC
0
SECTION
2
ENTITIES
0
POLYLINE
8
OBJECT000
66
1
70
64
71
8
72
12
62
50
0
VERTEX
8
OBJECT000
10
-191.000000
20
64.000000
30
32.000000
70
192
0
VERTEX
8
OBJECT000
10
-191.000000
20
65.000000
30
32.000000
70
192
0
VERTEX
8
OBJECT000
10
193.000000
20
65.000000
30
32.000000
70
192
0
VERTEX
8
OBJECT000
10
193.000000
20
64.000000
30
32.000000
70
192
0
VERTEX
8
OBJECT000
10
-191.000000
20
65.000000
30
-64.000000
70
192
0
VERTEX
8
OBJECT000
10
-191.000000
20
64.000000
30
-64.000000
70
192
0
VERTEX
8
OBJECT000
10
193.000000
20
64.000000
30
-64.000000
70
192
0
VERTEX
8
OBJECT000
10
193.000000
20
65.000000
30
-64.000000
70
192
0
VERTEX
8
OBJECT000
10
0
20
0
30
0
70
128
71
2
72
3
73
-4
0
VERTEX
8
OBJECT000
10
0
20
0
30
0
70
128
71
-2
72
4
73
1
0
VERTEX
8
OBJECT000
10
0
20
0
30
0
70
128
71
6
72
7
73
-8
0
VERTEX
8
OBJECT000
10
0
20
0
30
0
70
128
71
-6
72
8
73
5
0
VERTEX
8
OBJECT000
10
0
20
0
30
0
70
128
71
5
72
2
73
-1
0
VERTEX
8
OBJECT000
10
0
20
0
30
0
70
128
71
-5
72
1
73
6
0
VERTEX
8
OBJECT000
10
0
20
0
30
0
70
128
71
7
72
4
73
-3
0
VERTEX
8
OBJECT000
10
0
20
0
30
0
70
128
71
-7
72
3
73
8
0
VERTEX
8
OBJECT000
10
0
20
0
30
0
70
128
71
8
72
3
73
-2
0
VERTEX
8
OBJECT000
10
0
20
0
30
0
70
128
71
-8
72
2
73
5
0
VERTEX
8
OBJECT000
10
0
20
0
30
0
70
128
71
6
72
1
73
-4
0
VERTEX
8
OBJECT000
10
0
20
0
30
0
70
128
71
-6
72
4
73
7
0
SEQEND
8
OBJECT000
0
POLYLINE
8
OBJECT001
66
1
70
64
71
8
72
12
62
50
0
VERTEX
8
OBJECT001
10
-192.000000
20
320.000000
30
64.000000
70
192
0
VERTEX
8
OBJECT001
10
-192.000000
20
321.000000
30
64.000000
70
192
0
VERTEX
8
OBJECT001
10
192.000000
20
321.000000
30
64.000000
70
192
0
VERTEX
8
OBJECT001
10
192.000000
20
320.000000
30
64.000000
70
192
0
VERTEX
8
OBJECT001
10
-192.000000
20
321.000000
30
-48.000000
70
192
0
VERTEX
8
OBJECT001
10
-192.000000
20
320.000000
30
-48.000000
70
192
0
VERTEX
8
OBJECT001
10
192.000000
20
320.000000
30
-48.000000
70
192
0
VERTEX
8
OBJECT001
10
192.000000
20
321.000000
30
-48.000000
70
192
0
VERTEX
8
OBJECT001
10
0
20
0
30
0
70
128
71
2
72
3
73
-4
0
VERTEX
8
OBJECT001
10
0
20
0
30
0
70
128
71
-2
72
4
73
1
0
VERTEX
8
OBJECT001
10
0
20
0
30
0
70
128
71
6
72
7
73
-8
0
VERTEX
8
OBJECT001
10
0
20
0
30
0
70
128
71
-6
72
8
73
5
0
VERTEX
8
OBJECT001
10
0
20
0
30
0
70
128
71
5
72
2
73
-1
0
VERTEX
8
OBJECT001
10
0
20
0
30
0
70
128
71
-5
72
1
73
6
0
VERTEX
8
OBJECT001
10
0
20
0
30
0
70
128
71
7
72
4
73
-3
0
VERTEX
8
OBJECT001
10
0
20
0
30
0
70
128
71
-7
72
3
73
8
0
VERTEX
8
OBJECT001
10
0
20
0
30
0
70
128
71
8
72
3
73
-2
0
VERTEX
8
OBJECT001
10
0
20
0
30
0
70
128
71
-8
72
2
73
5
0
VERTEX
8
OBJECT001
10
0
20
0
30
0
70
128
71
6
72
1
73
-4
0
VERTEX
8
OBJECT001
10
0
20
0
30
0
70
128
71
-6
72
4
73
7
0
SEQEND
8
OBJECT001
0
POLYLINE
8
OBJECT002
66
1
70
64
71
8
72
12
62
50
0
VERTEX
8
OBJECT002
10
-192.000000
20
192.000000
30
48.000000
70
192
0
VERTEX
8
OBJECT002
10
-192.000000
20
193.000000
30
48.000000
70
192
0
VERTEX
8
OBJECT002
10
192.000000
20
193.000000
30
48.000000
70
192
0
VERTEX
8
OBJECT002
10
192.000000
20
192.000000
30
48.000000
70
192
0
VERTEX
8
OBJECT002
10
-192.000000
20
193.000000
30
-64.000000
70
192
0
VERTEX
8
OBJECT002
10
-192.000000
20
192.000000
30
-64.000000
70
192
0
VERTEX
8
OBJECT002
10
192.000000
20
192.000000
30
-64.000000
70
192
0
VERTEX
8
OBJECT002
10
192.000000
20
193.000000
30
-64.000000
70
192
0
VERTEX
8
OBJECT002
10
0
20
0
30
0
70
128
71
2
72
3
73
-4
0
VERTEX
8
OBJECT002
10
0
20
0
30
0
70
128
71
-2
72
4
73
1
0
VERTEX
8
OBJECT002
10
0
20
0
30
0
70
128
71
6
72
7
73
-8
0
VERTEX
8
OBJECT002
10
0
20
0
30
0
70
128
71
-6
72
8
73
5
0
VERTEX
8
OBJECT002
10
0
20
0
30
0
70
128
71
5
72
2
73
-1
0
VERTEX
8
OBJECT002
10
0
20
0
30
0
70
128
71
-5
72
1
73
6
0
VERTEX
8
OBJECT002
10
0
20
0
30
0
70
128
71
7
72
4
73
-3
0
VERTEX
8
OBJECT002
10
0
20
0
30
0
70
128
71
-7
72
3
73
8
0
VERTEX
8
OBJECT002
10
0
20
0
30
0
70
128
71
8
72
3
73
-2
0
VERTEX
8
OBJECT002
10
0
20
0
30
0
70
128
71
-8
72
2
73
5
0
VERTEX
8
OBJECT002
10
0
20
0
30
0
70
128
71
6
72
1
73
-4
0
VERTEX
8
OBJECT002
10
0
20
0
30
0
70
128
71
-6
72
4
73
7
0
SEQEND
8
OBJECT002
0
POLYLINE
8
OBJECT003
66
1
70
64
71
8
72
12
62
50
0
VERTEX
8
OBJECT003
10
-192.000000
20
448.000000
30
80.000000
70
192
0
VERTEX
8
OBJECT003
10
-192.000000
20
449.000000
30
80.000000
70
192
0
VERTEX
8
OBJECT003
10
192.000000
20
449.000000
30
80.000000
70
192
0
VERTEX
8
OBJECT003
10
192.000000
20
448.000000
30
80.000000
70
192
0
VERTEX
8
OBJECT003
10
-192.000000
20
449.000000
30
-48.000000
70
192
0
VERTEX
8
OBJECT003
10
-192.000000
20
448.000000
30
-48.000000
70
192
0
VERTEX
8
OBJECT003
10
192.000000
20
448.000000
30
-48.000000
70
192
0
VERTEX
8
OBJECT003
10
192.000000
20
449.000000
30
-48.000000
70
192
0
VERTEX
8
OBJECT003
10
0
20
0
30
0
70
128
71
2
72
3
73
-4
0
VERTEX
8
OBJECT003
10
0
20
0
30
0
70
128
71
-2
72
4
73
1
0
VERTEX
8
OBJECT003
10
0
20
0
30
0
70
128
71
6
72
7
73
-8
0
VERTEX
8
OBJECT003
10
0
20
0
30
0
70
128
71
-6
72
8
73
5
0
VERTEX
8
OBJECT003
10
0
20
0
30
0
70
128
71
5
72
2
73
-1
0
VERTEX
8
OBJECT003
10
0
20
0
30
0
70
128
71
-5
72
1
73
6
0
VERTEX
8
OBJECT003
10
0
20
0
30
0
70
128
71
7
72
4
73
-3
0
VERTEX
8
OBJECT003
10
0
20
0
30
0
70
128
71
-7
72
3
73
8
0
VERTEX
8
OBJECT003
10
0
20
0
30
0
70
128
71
8
72
3
73
-2
0
VERTEX
8
OBJECT003
10
0
20
0
30
0
70
128
71
-8
72
2
73
5
0
VERTEX
8
OBJECT003
10
0
20
0
30
0
70
128
71
6
72
1
73
-4
0
VERTEX
8
OBJECT003
10
0
20
0
30
0
70
128
71
-6
72
4
73
7
0
SEQEND
8
OBJECT003
0
POLYLINE
8
OBJECT004
66
1
70
64
71
8
72
12
62
50
0
VERTEX
8
OBJECT004
10
-44.000000
20
-128.000000
30
111.000000
70
192
0
VERTEX
8
OBJECT004
10
-44.000000
20
-127.000000
30
111.000000
70
192
0
VERTEX
8
OBJECT004
10
-36.000000
20
-127.000000
30
111.000000
70
192
0
VERTEX
8
OBJECT004
10
-36.000000
20
-128.000000
30
111.000000
70
192
0
VERTEX
8
OBJECT004
10
-44.000000
20
-127.000000
30
103.000000
70
192
0
VERTEX
8
OBJECT004
10
-44.000000
20
-128.000000
30
103.000000
70
192
0
VERTEX
8
OBJECT004
10
-36.000000
20
-128.000000
30
103.000000
70
192
0
VERTEX
8
OBJECT004
10
-36.000000
20
-127.000000
30
103.000000
70
192
0
VERTEX
8
OBJECT004
10
0
20
0
30
0
70
128
71
2
72
3
73
-4
0
VERTEX
8
OBJECT004
10
0
20
0
30
0
70
128
71
-2
72
4
73
1
0
VERTEX
8
OBJECT004
10
0
20
0
30
0
70
128
71
6
72
7
73
-8
0
VERTEX
8
OBJECT004
10
0
20
0
30
0
70
128
71
-6
72
8
73
5
0
VERTEX
8
OBJECT004
10
0
20
0
30
0
70
128
71
5
72
2
73
-1
0
VERTEX
8
OBJECT004
10
0
20
0
30
0
70
128
71
-5
72
1
73
6
0
VERTEX
8
OBJECT004
10
0
20
0
30
0
70
128
71
7
72
4
73
-3
0
VERTEX
8
OBJECT004
10
0
20
0
30
0
70
128
71
-7
72
3
73
8
0
VERTEX
8
OBJECT004
10
0
20
0
30
0
70
128
71
8
72
3
73
-2
0
VERTEX
8
OBJECT004
10
0
20
0
30
0
70
128
71
-8
72
2
73
5
0
VERTEX
8
OBJECT004
10
0
20
0
30
0
70
128
71
6
72
1
73
-4
0
VERTEX
8
OBJECT004
10
0
20
0
30
0
70
128
71
-6
72
4
73
7
0
SEQEND
8
OBJECT004
0
POLYLINE
8
OBJECT005
66
1
70
64
71
8
72
12
62
50
0
VERTEX
8
OBJECT005
10
-224.000000
20
-192.000000
30
128.000000
70
192
0
VERTEX
8
OBJECT005
10
-224.000000
20
608.000000
30
128.000000
70
192
0
VERTEX
8
OBJECT005
10
-192.000000
20
608.000000
30
128.000000
70
192
0
VERTEX
8
OBJECT005
10
-192.000000
20
-192.000000
30
128.000000
70
192
0
VERTEX
8
OBJECT005
10
-224.000000
20
608.000000
30
0.000000
70
192
0
VERTEX
8
OBJECT005
10
-224.000000
20
-192.000000
30
0.000000
70
192
0
VERTEX
8
OBJECT005
10
-192.000000
20
-192.000000
30
0.000000
70
192
0
VERTEX
8
OBJECT005
10
-192.000000
20
608.000000
30
0.000000
70
192
0
VERTEX
8
OBJECT005
10
0
20
0
30
0
70
128
71
2
72
3
73
-4
0
VERTEX
8
OBJECT005
10
0
20
0
30
0
70
128
71
-2
72
4
73
1
0
VERTEX
8
OBJECT005
10
0
20
0
30
0
70
128
71
6
72
7
73
-8
0
VERTEX
8
OBJECT005
10
0
20
0
30
0
70
128
71
-6
72
8
73
5
0
VERTEX
8
OBJECT005
10
0
20
0
30
0
70
128
71
5
72
2
73
-1
0
VERTEX
8
OBJECT005
10
0
20
0
30
0
70
128
71
-5
72
1
73
6
0
VERTEX
8
OBJECT005
10
0
20
0
30
0
70
128
71
7
72
4
73
-3
0
VERTEX
8
OBJECT005
10
0
20
0
30
0
70
128
71
-7
72
3
73
8
0
VERTEX
8
OBJECT005
10
0
20
0
30
0
70
128
71
8
72
3
73
-2
0
VERTEX
8
OBJECT005
10
0
20
0
30
0
70
128
71
-8
72
2
73
5
0
VERTEX
8
OBJECT005
10
0
20
0
30
0
70
128
71
6
72
1
73
-4
0
VERTEX
8
OBJECT005
10
0
20
0
30
0
70
128
71
-6
72
4
73
7
0
SEQEND
8
OBJECT005
0
POLYLINE
8
OBJECT006
66
1
70
64
71
8
72
12
62
50
0
VERTEX
8
OBJECT006
10
192.000000
20
-192.000000
30
128.000000
70
192
0
VERTEX
8
OBJECT006
10
192.000000
20
608.000000
30
128.000000
70
192
0
VERTEX
8
OBJECT006
10
224.000000
20
608.000000
30
128.000000
70
192
0
VERTEX
8
OBJECT006
10
224.000000
20
-192.000000
30
128.000000
70
192
0
VERTEX
8
OBJECT006
10
192.000000
20
608.000000
30
0.000000
70
192
0
VERTEX
8
OBJECT006
10
192.000000
20
-192.000000
30
0.000000
70
192
0
VERTEX
8
OBJECT006
10
224.000000
20
-192.000000
30
0.000000
70
192
0
VERTEX
8
OBJECT006
10
224.000000
20
608.000000
30
0.000000
70
192
0
VERTEX
8
OBJECT006
10
0
20
0
30
0
70
128
71
2
72
3
73
-4
0
VERTEX
8
OBJECT006
10
0
20
0
30
0
70
128
71
-2
72
4
73
1
0
VERTEX
8
OBJECT006
10
0
20
0
30
0
70
128
71
6
72
7
73
-8
0
VERTEX
8
OBJECT006
10
0
20
0
30
0
70
128
71
-6
72
8
73
5
0
VERTEX
8
OBJECT006
10
0
20
0
30
0
70
128
71
5
72
2
73
-1
0
VERTEX
8
OBJECT006
10
0
20
0
30
0
70
128
71
-5
72
1
73
6
0
VERTEX
8
OBJECT006
10
0
20
0
30
0
70
128
71
7
72
4
73
-3
0
VERTEX
8
OBJECT006
10
0
20
0
30
0
70
128
71
-7
72
3
73
8
0
VERTEX
8
OBJECT006
10
0
20
0
30
0
70
128
71
8
72
3
73
-2
0
VERTEX
8
OBJECT006
10
0
20
0
30
0
70
128
71
-8
72
2
73
5
0
VERTEX
8
OBJECT006
10
0
20
0
30
0
70
128
71
6
72
1
73
-4
0
VERTEX
8
OBJECT006
10
0
20
0
30
0
70
128
71
-6
72
4
73
7
0
SEQEND
8
OBJECT006
0
POLYLINE
8
OBJECT007
66
1
70
64
71
8
72
12
62
50
0
VERTEX
8
OBJECT007
10
-224.000000
20
-192.000000
30
0.000000
70
192
0
VERTEX
8
OBJECT007
10
-224.000000
20
608.000000
30
0.000000
70
192
0
VERTEX
8
OBJECT007
10
224.000000
20
608.000000
30
0.000000
70
192
0
VERTEX
8
OBJECT007
10
224.000000
20
-192.000000
30
0.000000
70
192
0
VERTEX
8
OBJECT007
10
-224.000000
20
608.000000
30
-64.000000
70
192
0
VERTEX
8
OBJECT007
10
-224.000000
20
-192.000000
30
-64.000000
70
192
0
VERTEX
8
OBJECT007
10
224.000000
20
-192.000000
30
-64.000000
70
192
0
VERTEX
8
OBJECT007
10
224.000000
20
608.000000
30
-64.000000
70
192
0
VERTEX
8
OBJECT007
10
0
20
0
30
0
70
128
71
2
72
3
73
-4
0
VERTEX
8
OBJECT007
10
0
20
0
30
0
70
128
71
-2
72
4
73
1
0
VERTEX
8
OBJECT007
10
0
20
0
30
0
70
128
71
6
72
7
73
-8
0
VERTEX
8
OBJECT007
10
0
20
0
30
0
70
128
71
-6
72
8
73
5
0
VERTEX
8
OBJECT007
10
0
20
0
30
0
70
128
71
5
72
2
73
-1
0
VERTEX
8
OBJECT007
10
0
20
0
30
0
70
128
71
-5
72
1
73
6
0
VERTEX
8
OBJECT007
10
0
20
0
30
0
70
128
71
7
72
4
73
-3
0
VERTEX
8
OBJECT007
10
0
20
0
30
0
70
128
71
-7
72
3
73
8
0
VERTEX
8
OBJECT007
10
0
20
0
30
0
70
128
71
8
72
3
73
-2
0
VERTEX
8
OBJECT007
10
0
20
0
30
0
70
128
71
-8
72
2
73
5
0
VERTEX
8
OBJECT007
10
0
20
0
30
0
70
128
71
6
72
1
73
-4
0
VERTEX
8
OBJECT007
10
0
20
0
30
0
70
128
71
-6
72
4
73
7
0
SEQEND
8
OBJECT007
0
POLYLINE
8
OBJECT008
66
1
70
64
71
8
72
12
62
50
0
VERTEX
8
OBJECT008
10
-224.000000
20
576.000000
30
192.000000
70
192
0
VERTEX
8
OBJECT008
10
-224.000000
20
640.000000
30
192.000000
70
192
0
VERTEX
8
OBJECT008
10
224.000000
20
640.000000
30
192.000000
70
192
0
VERTEX
8
OBJECT008
10
224.000000
20
576.000000
30
192.000000
70
192
0
VERTEX
8
OBJECT008
10
-224.000000
20
640.000000
30
0.000000
70
192
0
VERTEX
8
OBJECT008
10
-224.000000
20
576.000000
30
0.000000
70
192
0
VERTEX
8
OBJECT008
10
224.000000
20
576.000000
30
0.000000
70
192
0
VERTEX
8
OBJECT008
10
224.000000
20
640.000000
30
0.000000
70
192
0
VERTEX
8
OBJECT008
10
0
20
0
30
0
70
128
71
2
72
3
73
-4
0
VERTEX
8
OBJECT008
10
0
20
0
30
0
70
128
71
-2
72
4
73
1
0
VERTEX
8
OBJECT008
10
0
20
0
30
0
70
128
71
6
72
7
73
-8
0
VERTEX
8
OBJECT008
10
0
20
0
30
0
70
128
71
-6
72
8
73
5
0
VERTEX
8
OBJECT008
10
0
20
0
30
0
70
128
71
5
72
2
73
-1
0
VERTEX
8
OBJECT008
10
0
20
0
30
0
70
128
71
-5
72
1
73
6
0
VERTEX
8
OBJECT008
10
0
20
0
30
0
70
128
71
7
72
4
73
-3
0
VERTEX
8
OBJECT008
10
0
20
0
30
0
70
128
71
-7
72
3
73
8
0
VERTEX
8
OBJECT008
10
0
20
0
30
0
70
128
71
8
72
3
73
-2
0
VERTEX
8
OBJECT008
10
0
20
0
30
0
70
128
71
-8
72
2
73
5
0
VERTEX
8
OBJECT008
10
0
20
0
30
0
70
128
71
6
72
1
73
-4
0
VERTEX
8
OBJECT008
10
0
20
0
30
0
70
128
71
-6
72
4
73
7
0
SEQEND
8
OBJECT008
0
POLYLINE
8
OBJECT009
66
1
70
64
71
8
72
12
62
50
0
VERTEX
8
OBJECT009
10
-224.000000
20
-192.000000
30
192.000000
70
192
0
VERTEX
8
OBJECT009
10
-224.000000
20
576.000000
30
192.000000
70
192
0
VERTEX
8
OBJECT009
10
-192.000000
20
576.000000
30
192.000000
70
192
0
VERTEX
8
OBJECT009
10
-192.000000
20
-192.000000
30
192.000000
70
192
0
VERTEX
8
OBJECT009
10
-224.000000
20
576.000000
30
128.000000
70
192
0
VERTEX
8
OBJECT009
10
-224.000000
20
-192.000000
30
128.000000
70
192
0
VERTEX
8
OBJECT009
10
-192.000000
20
-192.000000
30
128.000000
70
192
0
VERTEX
8
OBJECT009
10
-192.000000
20
576.000000
30
128.000000
70
192
0
VERTEX
8
OBJECT009
10
0
20
0
30
0
70
128
71
2
72
3
73
-4
0
VERTEX
8
OBJECT009
10
0
20
0
30
0
70
128
71
-2
72
4
73
1
0
VERTEX
8
OBJECT009
10
0
20
0
30
0
70
128
71
6
72
7
73
-8
0
VERTEX
8
OBJECT009
10
0
20
0
30
0
70
128
71
-6
72
8
73
5
0
VERTEX
8
OBJECT009
10
0
20
0
30
0
70
128
71
5
72
2
73
-1
0
VERTEX
8
OBJECT009
10
0
20
0
30
0
70
128
71
-5
72
1
73
6
0
VERTEX
8
OBJECT009
10
0
20
0
30
0
70
128
71
7
72
4
73
-3
0
VERTEX
8
OBJECT009
10
0
20
0
30
0
70
128
71
-7
72
3
73
8
0
VERTEX
8
OBJECT009
10
0
20
0
30
0
70
128
71
8
72
3
73
-2
0
VERTEX
8
OBJECT009
10
0
20
0
30
0
70
128
71
-8
72
2
73
5
0
VERTEX
8
OBJECT009
10
0
20
0
30
0
70
128
71
6
72
1
73
-4
0
VERTEX
8
OBJECT009
10
0
20
0
30
0
70
128
71
-6
72
4
73
7
0
SEQEND
8
OBJECT009
0
POLYLINE
8
OBJECT010
66
1
70
64
71
8
72
12
62
50
0
VERTEX
8
OBJECT010
10
192.000000
20
-192.000000
30
192.000000
70
192
0
VERTEX
8
OBJECT010
10
192.000000
20
576.000000
30
192.000000
70
192
0
VERTEX
8
OBJECT010
10
224.000000
20
576.000000
30
192.000000
70
192
0
VERTEX
8
OBJECT010
10
224.000000
20
-192.000000
30
192.000000
70
192
0
VERTEX
8
OBJECT010
10
192.000000
20
576.000000
30
128.000000
70
192
0
VERTEX
8
OBJECT010
10
192.000000
20
-192.000000
30
128.000000
70
192
0
VERTEX
8
OBJECT010
10
224.000000
20
-192.000000
30
128.000000
70
192
0
VERTEX
8
OBJECT010
10
224.000000
20
576.000000
30
128.000000
70
192
0
VERTEX
8
OBJECT010
10
0
20
0
30
0
70
128
71
2
72
3
73
-4
0
VERTEX
8
OBJECT010
10
0
20
0
30
0
70
128
71
-2
72
4
73
1
0
VERTEX
8
OBJECT010
10
0
20
0
30
0
70
128
71
6
72
7
73
-8
0
VERTEX
8
OBJECT010
10
0
20
0
30
0
70
128
71
-6
72
8
73
5
0
VERTEX
8
OBJECT010
10
0
20
0
30
0
70
128
71
5
72
2
73
-1
0
VERTEX
8
OBJECT010
10
0
20
0
30
0
70
128
71
-5
72
1
73
6
0
VERTEX
8
OBJECT010
10
0
20
0
30
0
70
128
71
7
72
4
73
-3
0
VERTEX
8
OBJECT010
10
0
20
0
30
0
70
128
71
-7
72
3
73
8
0
VERTEX
8
OBJECT010
10
0
20
0
30
0
70
128
71
8
72
3
73
-2
0
VERTEX
8
OBJECT010
10
0
20
0
30
0
70
128
71
-8
72
2
73
5
0
VERTEX
8
OBJECT010
10
0
20
0
30
0
70
128
71
6
72
1
73
-4
0
VERTEX
8
OBJECT010
10
0
20
0
30
0
70
128
71
-6
72
4
73
7
0
SEQEND
8
OBJECT010
0
POLYLINE
8
OBJECT011
66
1
70
64
71
8
72
12
62
50
0
VERTEX
8
OBJECT011
10
128.000000
20
-192.000000
30
192.000000
70
192
0
VERTEX
8
OBJECT011
10
128.000000
20
-128.000000
30
192.000000
70
192
0
VERTEX
8
OBJECT011
10
192.000000
20
-128.000000
30
192.000000
70
192
0
VERTEX
8
OBJECT011
10
192.000000
20
-192.000000
30
192.000000
70
192
0
VERTEX
8
OBJECT011
10
128.000000
20
-128.000000
30
0.000000
70
192
0
VERTEX
8
OBJECT011
10
128.000000
20
-192.000000
30
0.000000
70
192
0
VERTEX
8
OBJECT011
10
192.000000
20
-192.000000
30
0.000000
70
192
0
VERTEX
8
OBJECT011
10
192.000000
20
-128.000000
30
0.000000
70
192
0
VERTEX
8
OBJECT011
10
0
20
0
30
0
70
128
71
2
72
3
73
-4
0
VERTEX
8
OBJECT011
10
0
20
0
30
0
70
128
71
-2
72
4
73
1
0
VERTEX
8
OBJECT011
10
0
20
0
30
0
70
128
71
6
72
7
73
-8
0
VERTEX
8
OBJECT011
10
0
20
0
30
0
70
128
71
-6
72
8
73
5
0
VERTEX
8
OBJECT011
10
0
20
0
30
0
70
128
71
5
72
2
73
-1
0
VERTEX
8
OBJECT011
10
0
20
0
30
0
70
128
71
-5
72
1
73
6
0
VERTEX
8
OBJECT011
10
0
20
0
30
0
70
128
71
7
72
4
73
-3
0
VERTEX
8
OBJECT011
10
0
20
0
30
0
70
128
71
-7
72
3
73
8
0
VERTEX
8
OBJECT011
10
0
20
0
30
0
70
128
71
8
72
3
73
-2
0
VERTEX
8
OBJECT011
10
0
20
0
30
0
70
128
71
-8
72
2
73
5
0
VERTEX
8
OBJECT011
10
0
20
0
30
0
70
128
71
6
72
1
73
-4
0
VERTEX
8
OBJECT011
10
0
20
0
30
0
70
128
71
-6
72
4
73
7
0
SEQEND
8
OBJECT011
0
POLYLINE
8
OBJECT012
66
1
70
64
71
8
72
12
62
50
0
VERTEX
8
OBJECT012
10
-128.000000
20
-192.000000
30
32.000000
70
192
0
VERTEX
8
OBJECT012
10
-128.000000
20
-128.000000
30
32.000000
70
192
0
VERTEX
8
OBJECT012
10
128.000000
20
-128.000000
30
32.000000
70
192
0
VERTEX
8
OBJECT012
10
128.000000
20
-192.000000
30
32.000000
70
192
0
VERTEX
8
OBJECT012
10
-128.000000
20
-128.000000
30
0.000000
70
192
0
VERTEX
8
OBJECT012
10
-128.000000
20
-192.000000
30
0.000000
70
192
0
VERTEX
8
OBJECT012
10
128.000000
20
-192.000000
30
0.000000
70
192
0
VERTEX
8
OBJECT012
10
128.000000
20
-128.000000
30
0.000000
70
192
0
VERTEX
8
OBJECT012
10
0
20
0
30
0
70
128
71
2
72
3
73
-4
0
VERTEX
8
OBJECT012
10
0
20
0
30
0
70
128
71
-2
72
4
73
1
0
VERTEX
8
OBJECT012
10
0
20
0
30
0
70
128
71
6
72
7
73
-8
0
VERTEX
8
OBJECT012
10
0
20
0
30
0
70
128
71
-6
72
8
73
5
0
VERTEX
8
OBJECT012
10
0
20
0
30
0
70
128
71
5
72
2
73
-1
0
VERTEX
8
OBJECT012
10
0
20
0
30
0
70
128
71
-5
72
1
73
6
0
VERTEX
8
OBJECT012
10
0
20
0
30
0
70
128
71
7
72
4
73
-3
0
VERTEX
8
OBJECT012
10
0
20
0
30
0
70
128
71
-7
72
3
73
8
0
VERTEX
8
OBJECT012
10
0
20
0
30
0
70
128
71
8
72
3
73
-2
0
VERTEX
8
OBJECT012
10
0
20
0
30
0
70
128
71
-8
72
2
73
5
0
VERTEX
8
OBJECT012
10
0
20
0
30
0
70
128
71
6
72
1
73
-4
0
VERTEX
8
OBJECT012
10
0
20
0
30
0
70
128
71
-6
72
4
73
7
0
SEQEND
8
OBJECT012
0
POLYLINE
8
OBJECT013
66
1
70
64
71
8
72
12
62
50
0
VERTEX
8
OBJECT013
10
-128.000000
20
-192.000000
30
192.000000
70
192
0
VERTEX
8
OBJECT013
10
-128.000000
20
-128.000000
30
192.000000
70
192
0
VERTEX
8
OBJECT013
10
128.000000
20
-128.000000
30
192.000000
70
192
0
VERTEX
8
OBJECT013
10
128.000000
20
-192.000000
30
192.000000
70
192
0
VERTEX
8
OBJECT013
10
-128.000000
20
-128.000000
30
160.000000
70
192
0
VERTEX
8
OBJECT013
10
-128.000000
20
-192.000000
30
160.000000
70
192
0
VERTEX
8
OBJECT013
10
128.000000
20
-192.000000
30
160.000000
70
192
0
VERTEX
8
OBJECT013
10
128.000000
20
-128.000000
30
160.000000
70
192
0
VERTEX
8
OBJECT013
10
0
20
0
30
0
70
128
71
2
72
3
73
-4
0
VERTEX
8
OBJECT013
10
0
20
0
30
0
70
128
71
-2
72
4
73
1
0
VERTEX
8
OBJECT013
10
0
20
0
30
0
70
128
71
6
72
7
73
-8
0
VERTEX
8
OBJECT013
10
0
20
0
30
0
70
128
71
-6
72
8
73
5
0
VERTEX
8
OBJECT013
10
0
20
0
30
0
70
128
71
5
72
2
73
-1
0
VERTEX
8
OBJECT013
10
0
20
0
30
0
70
128
71
-5
72
1
73
6
0
VERTEX
8
OBJECT013
10
0
20
0
30
0
70
128
71
7
72
4
73
-3
0
VERTEX
8
OBJECT013
10
0
20
0
30
0
70
128
71
-7
72
3
73
8
0
VERTEX
8
OBJECT013
10
0
20
0
30
0
70
128
71
8
72
3
73
-2
0
VERTEX
8
OBJECT013
10
0
20
0
30
0
70
128
71
-8
72
2
73
5
0
VERTEX
8
OBJECT013
10
0
20
0
30
0
70
128
71
6
72
1
73
-4
0
VERTEX
8
OBJECT013
10
0
20
0
30
0
70
128
71
-6
72
4
73
7
0
SEQEND
8
OBJECT013
0
POLYLINE
8
OBJECT014
66
1
70
64
71
8
72
12
62
50
0
VERTEX
8
OBJECT014
10
-192.000000
20
64.000000
30
16.000000
70
192
0
VERTEX
8
OBJECT014
10
-192.000000
20
576.000000
30
16.000000
70
192
0
VERTEX
8
OBJECT014
10
192.000000
20
576.000000
30
16.000000
70
192
0
VERTEX
8
OBJECT014
10
192.000000
20
64.000000
30
16.000000
70
192
0
VERTEX
8
OBJECT014
10
-192.000000
20
576.000000
30
0.000000
70
192
0
VERTEX
8
OBJECT014
10
-192.000000
20
64.000000
30
0.000000
70
192
0
VERTEX
8
OBJECT014
10
192.000000
20
64.000000
30
0.000000
70
192
0
VERTEX
8
OBJECT014
10
192.000000
20
576.000000
30
0.000000
70
192
0
VERTEX
8
OBJECT014
10
0
20
0
30
0
70
128
71
2
72
3
73
-4
0
VERTEX
8
OBJECT014
10
0
20
0
30
0
70
128
71
-2
72
4
73
1
0
VERTEX
8
OBJECT014
10
0
20
0
30
0
70
128
71
6
72
7
73
-8
0
VERTEX
8
OBJECT014
10
0
20
0
30
0
70
128
71
-6
72
8
73
5
0
VERTEX
8
OBJECT014
10
0
20
0
30
0
70
128
71
5
72
2
73
-1
0
VERTEX
8
OBJECT014
10
0
20
0
30
0
70
128
71
-5
72
1
73
6
0
VERTEX
8
OBJECT014
10
0
20
0
30
0
70
128
71
7
72
4
73
-3
0
VERTEX
8
OBJECT014
10
0
20
0
30
0
70
128
71
-7
72
3
73
8
0
VERTEX
8
OBJECT014
10
0
20
0
30
0
70
128
71
8
72
3
73
-2
0
VERTEX
8
OBJECT014
10
0
20
0
30
0
70
128
71
-8
72
2
73
5
0
VERTEX
8
OBJECT014
10
0
20
0
30
0
70
128
71
6
72
1
73
-4
0
VERTEX
8
OBJECT014
10
0
20
0
30
0
70
128
71
-6
72
4
73
7
0
SEQEND
8
OBJECT014
0
POLYLINE
8
OBJECT015
66
1
70
64
71
8
72
12
62
50
0
VERTEX
8
OBJECT015
10
-192.000000
20
192.000000
30
32.000000
70
192
0
VERTEX
8
OBJECT015
10
-192.000000
20
576.000000
30
32.000000
70
192
0
VERTEX
8
OBJECT015
10
192.000000
20
576.000000
30
32.000000
70
192
0
VERTEX
8
OBJECT015
10
192.000000
20
192.000000
30
32.000000
70
192
0
VERTEX
8
OBJECT015
10
-192.000000
20
576.000000
30
16.000000
70
192
0
VERTEX
8
OBJECT015
10
-192.000000
20
192.000000
30
16.000000
70
192
0
VERTEX
8
OBJECT015
10
192.000000
20
192.000000
30
16.000000
70
192
0
VERTEX
8
OBJECT015
10
192.000000
20
576.000000
30
16.000000
70
192
0
VERTEX
8
OBJECT015
10
0
20
0
30
0
70
128
71
2
72
3
73
-4
0
VERTEX
8
OBJECT015
10
0
20
0
30
0
70
128
71
-2
72
4
73
1
0
VERTEX
8
OBJECT015
10
0
20
0
30
0
70
128
71
6
72
7
73
-8
0
VERTEX
8
OBJECT015
10
0
20
0
30
0
70
128
71
-6
72
8
73
5
0
VERTEX
8
OBJECT015
10
0
20
0
30
0
70
128
71
5
72
2
73
-1
0
VERTEX
8
OBJECT015
10
0
20
0
30
0
70
128
71
-5
72
1
73
6
0
VERTEX
8
OBJECT015
10
0
20
0
30
0
70
128
71
7
72
4
73
-3
0
VERTEX
8
OBJECT015
10
0
20
0
30
0
70
128
71
-7
72
3
73
8
0
VERTEX
8
OBJECT015
10
0
20
0
30
0
70
128
71
8
72
3
73
-2
0
VERTEX
8
OBJECT015
10
0
20
0
30
0
70
128
71
-8
72
2
73
5
0
VERTEX
8
OBJECT015
10
0
20
0
30
0
70
128
71
6
72
1
73
-4
0
VERTEX
8
OBJECT015
10
0
20
0
30
0
70
128
71
-6
72
4
73
7
0
SEQEND
8
OBJECT015
0
POLYLINE
8
OBJECT016
66
1
70
64
71
8
72
12
62
50
0
VERTEX
8
OBJECT016
10
-192.000000
20
320.000000
30
48.000000
70
192
0
VERTEX
8
OBJECT016
10
-192.000000
20
576.000000
30
48.000000
70
192
0
VERTEX
8
OBJECT016
10
192.000000
20
576.000000
30
48.000000
70
192
0
VERTEX
8
OBJECT016
10
192.000000
20
320.000000
30
48.000000
70
192
0
VERTEX
8
OBJECT016
10
-192.000000
20
576.000000
30
32.000000
70
192
0
VERTEX
8
OBJECT016
10
-192.000000
20
320.000000
30
32.000000
70
192
0
VERTEX
8
OBJECT016
10
192.000000
20
320.000000
30
32.000000
70
192
0
VERTEX
8
OBJECT016
10
192.000000
20
576.000000
30
32.000000
70
192
0
VERTEX
8
OBJECT016
10
0
20
0
30
0
70
128
71
2
72
3
73
-4
0
VERTEX
8
OBJECT016
10
0
20
0
30
0
70
128
71
-2
72
4
73
1
0
VERTEX
8
OBJECT016
10
0
20
0
30
0
70
128
71
6
72
7
73
-8
0
VERTEX
8
OBJECT016
10
0
20
0
30
0
70
128
71
-6
72
8
73
5
0
VERTEX
8
OBJECT016
10
0
20
0
30
0
70
128
71
5
72
2
73
-1
0
VERTEX
8
OBJECT016
10
0
20
0
30
0
70
128
71
-5
72
1
73
6
0
VERTEX
8
OBJECT016
10
0
20
0
30
0
70
128
71
7
72
4
73
-3
0
VERTEX
8
OBJECT016
10
0
20
0
30
0
70
128
71
-7
72
3
73
8
0
VERTEX
8
OBJECT016
10
0
20
0
30
0
70
128
71
8
72
3
73
-2
0
VERTEX
8
OBJECT016
10
0
20
0
30
0
70
128
71
-8
72
2
73
5
0
VERTEX
8
OBJECT016
10
0
20
0
30
0
70
128
71
6
72
1
73
-4
0
VERTEX
8
OBJECT016
10
0
20
0
30
0
70
128
71
-6
72
4
73
7
0
SEQEND
8
OBJECT016
0
POLYLINE
8
OBJECT017
66
1
70
64
71
8
72
12
62
50
0
VERTEX
8
OBJECT017
10
-192.000000
20
448.000000
30
64.000000
70
192
0
VERTEX
8
OBJECT017
10
-192.000000
20
576.000000
30
64.000000
70
192
0
VERTEX
8
OBJECT017
10
192.000000
20
576.000000
30
64.000000
70
192
0
VERTEX
8
OBJECT017
10
192.000000
20
448.000000
30
64.000000
70
192
0
VERTEX
8
OBJECT017
10
-192.000000
20
576.000000
30
48.000000
70
192
0
VERTEX
8
OBJECT017
10
-192.000000
20
448.000000
30
48.000000
70
192
0
VERTEX
8
OBJECT017
10
192.000000
20
448.000000
30
48.000000
70
192
0
VERTEX
8
OBJECT017
10
192.000000
20
576.000000
30
48.000000
70
192
0
VERTEX
8
OBJECT017
10
0
20
0
30
0
70
128
71
2
72
3
73
-4
0
VERTEX
8
OBJECT017
10
0
20
0
30
0
70
128
71
-2
72
4
73
1
0
VERTEX
8
OBJECT017
10
0
20
0
30
0
70
128
71
6
72
7
73
-8
0
VERTEX
8
OBJECT017
10
0
20
0
30
0
70
128
71
-6
72
8
73
5
0
VERTEX
8
OBJECT017
10
0
20
0
30
0
70
128
71
5
72
2
73
-1
0
VERTEX
8
OBJECT017
10
0
20
0
30
0
70
128
71
-5
72
1
73
6
0
VERTEX
8
OBJECT017
10
0
20
0
30
0
70
128
71
7
72
4
73
-3
0
VERTEX
8
OBJECT017
10
0
20
0
30
0
70
128
71
-7
72
3
73
8
0
VERTEX
8
OBJECT017
10
0
20
0
30
0
70
128
71
8
72
3
73
-2
0
VERTEX
8
OBJECT017
10
0
20
0
30
0
70
128
71
-8
72
2
73
5
0
VERTEX
8
OBJECT017
10
0
20
0
30
0
70
128
71
6
72
1
73
-4
0
VERTEX
8
OBJECT017
10
0
20
0
30
0
70
128
71
-6
72
4
73
7
0
SEQEND
8
OBJECT017
0
POLYLINE
8
OBJECT018
66
1
70
64
71
8
72
12
62
50
0
VERTEX
8
OBJECT018
10
-224.000000
20
-192.000000
30
224.000000
70
192
0
VERTEX
8
OBJECT018
10
-224.000000
20
640.000000
30
224.000000
70
192
0
VERTEX
8
OBJECT018
10
-192.000000
20
640.000000
30
224.000000
70
192
0
VERTEX
8
OBJECT018
10
-192.000000
20
-192.000000
30
224.000000
70
192
0
VERTEX
8
OBJECT018
10
-224.000000
20
640.000000
30
192.000000
70
192
0
VERTEX
8
OBJECT018
10
-224.000000
20
-192.000000
30
192.000000
70
192
0
VERTEX
8
OBJECT018
10
-192.000000
20
-192.000000
30
192.000000
70
192
0
VERTEX
8
OBJECT018
10
-192.000000
20
640.000000
30
192.000000
70
192
0
VERTEX
8
OBJECT018
10
0
20
0
30
0
70
128
71
2
72
3
73
-4
0
VERTEX
8
OBJECT018
10
0
20
0
30
0
70
128
71
-2
72
4
73
1
0
VERTEX
8
OBJECT018
10
0
20
0
30
0
70
128
71
6
72
7
73
-8
0
VERTEX
8
OBJECT018
10
0
20
0
30
0
70
128
71
-6
72
8
73
5
0
VERTEX
8
OBJECT018
10
0
20
0
30
0
70
128
71
5
72
2
73
-1
0
VERTEX
8
OBJECT018
10
0
20
0
30
0
70
128
71
-5
72
1
73
6
0
VERTEX
8
OBJECT018
10
0
20
0
30
0
70
128
71
7
72
4
73
-3
0
VERTEX
8
OBJECT018
10
0
20
0
30
0
70
128
71
-7
72
3
73
8
0
VERTEX
8
OBJECT018
10
0
20
0
30
0
70
128
71
8
72
3
73
-2
0
VERTEX
8
OBJECT018
10
0
20
0
30
0
70
128
71
-8
72
2
73
5
0
VERTEX
8
OBJECT018
10
0
20
0
30
0
70
128
71
6
72
1
73
-4
0
VERTEX
8
OBJECT018
10
0
20
0
30
0
70
128
71
-6
72
4
73
7
0
SEQEND
8
OBJECT018
0
POLYLINE
8
OBJECT019
66
1
70
64
71
8
72
12
62
50
0
VERTEX
8
OBJECT019
10
192.000000
20
-192.000000
30
224.000000
70
192
0
VERTEX
8
OBJECT019
10
192.000000
20
640.000000
30
224.000000
70
192
0
VERTEX
8
OBJECT019
10
224.000000
20
640.000000
30
224.000000
70
192
0
VERTEX
8
OBJECT019
10
224.000000
20
-192.000000
30
224.000000
70
192
0
VERTEX
8
OBJECT019
10
192.000000
20
640.000000
30
192.000000
70
192
0
VERTEX
8
OBJECT019
10
192.000000
20
-192.000000
30
192.000000
70
192
0
VERTEX
8
OBJECT019
10
224.000000
20
-192.000000
30
192.000000
70
192
0
VERTEX
8
OBJECT019
10
224.000000
20
640.000000
30
192.000000
70
192
0
VERTEX
8
OBJECT019
10
0
20
0
30
0
70
128
71
2
72
3
73
-4
0
VERTEX
8
OBJECT019
10
0
20
0
30
0
70
128
71
-2
72
4
73
1
0
VERTEX
8
OBJECT019
10
0
20
0
30
0
70
128
71
6
72
7
73
-8
0
VERTEX
8
OBJECT019
10
0
20
0
30
0
70
128
71
-6
72
8
73
5
0
VERTEX
8
OBJECT019
10
0
20
0
30
0
70
128
71
5
72
2
73
-1
0
VERTEX
8
OBJECT019
10
0
20
0
30
0
70
128
71
-5
72
1
73
6
0
VERTEX
8
OBJECT019
10
0
20
0
30
0
70
128
71
7
72
4
73
-3
0
VERTEX
8
OBJECT019
10
0
20
0
30
0
70
128
71
-7
72
3
73
8
0
VERTEX
8
OBJECT019
10
0
20
0
30
0
70
128
71
8
72
3
73
-2
0
VERTEX
8
OBJECT019
10
0
20
0
30
0
70
128
71
-8
72
2
73
5
0
VERTEX
8
OBJECT019
10
0
20
0
30
0
70
128
71
6
72
1
73
-4
0
VERTEX
8
OBJECT019
10
0
20
0
30
0
70
128
71
-6
72
4
73
7
0
SEQEND
8
OBJECT019
0
POLYLINE
8
OBJECT020
66
1
70
64
71
8
72
12
62
50
0
VERTEX
8
OBJECT020
10
-192.000000
20
576.000000
30
224.000000
70
192
0
VERTEX
8
OBJECT020
10
-192.000000
20
640.000000
30
224.000000
70
192
0
VERTEX
8
OBJECT020
10
192.000000
20
640.000000
30
224.000000
70
192
0
VERTEX
8
OBJECT020
10
192.000000
20
576.000000
30
224.000000
70
192
0
VERTEX
8
OBJECT020
10
-192.000000
20
640.000000
30
192.000000
70
192
0
VERTEX
8
OBJECT020
10
-192.000000
20
576.000000
30
192.000000
70
192
0
VERTEX
8
OBJECT020
10
192.000000
20
576.000000
30
192.000000
70
192
0
VERTEX
8
OBJECT020
10
192.000000
20
640.000000
30
192.000000
70
192
0
VERTEX
8
OBJECT020
10
0
20
0
30
0
70
128
71
2
72
3
73
-4
0
VERTEX
8
OBJECT020
10
0
20
0
30
0
70
128
71
-2
72
4
73
1
0
VERTEX
8
OBJECT020
10
0
20
0
30
0
70
128
71
6
72
7
73
-8
0
VERTEX
8
OBJECT020
10
0
20
0
30
0
70
128
71
-6
72
8
73
5
0
VERTEX
8
OBJECT020
10
0
20
0
30
0
70
128
71
5
72
2
73
-1
0
VERTEX
8
OBJECT020
10
0
20
0
30
0
70
128
71
-5
72
1
73
6
0
VERTEX
8
OBJECT020
10
0
20
0
30
0
70
128
71
7
72
4
73
-3
0
VERTEX
8
OBJECT020
10
0
20
0
30
0
70
128
71
-7
72
3
73
8
0
VERTEX
8
OBJECT020
10
0
20
0
30
0
70
128
71
8
72
3
73
-2
0
VERTEX
8
OBJECT020
10
0
20
0
30
0
70
128
71
-8
72
2
73
5
0
VERTEX
8
OBJECT020
10
0
20
0
30
0
70
128
71
6
72
1
73
-4
0
VERTEX
8
OBJECT020
10
0
20
0
30
0
70
128
71
-6
72
4
73
7
0
SEQEND
8
OBJECT020
0
POLYLINE
8
OBJECT021
66
1
70
64
71
8
72
12
62
50
0
VERTEX
8
OBJECT021
10
-192.000000
20
-192.000000
30
224.000000
70
192
0
VERTEX
8
OBJECT021
10
-192.000000
20
-128.000000
30
224.000000
70
192
0
VERTEX
8
OBJECT021
10
192.000000
20
-128.000000
30
224.000000
70
192
0
VERTEX
8
OBJECT021
10
192.000000
20
-192.000000
30
224.000000
70
192
0
VERTEX
8
OBJECT021
10
-192.000000
20
-128.000000
30
192.000000
70
192
0
VERTEX
8
OBJECT021
10
-192.000000
20
-192.000000
30
192.000000
70
192
0
VERTEX
8
OBJECT021
10
192.000000
20
-192.000000
30
192.000000
70
192
0
VERTEX
8
OBJECT021
10
192.000000
20
-128.000000
30
192.000000
70
192
0
VERTEX
8
OBJECT021
10
0
20
0
30
0
70
128
71
2
72
3
73
-4
0
VERTEX
8
OBJECT021
10
0
20
0
30
0
70
128
71
-2
72
4
73
1
0
VERTEX
8
OBJECT021
10
0
20
0
30
0
70
128
71
6
72
7
73
-8
0
VERTEX
8
OBJECT021
10
0
20
0
30
0
70
128
71
-6
72
8
73
5
0
VERTEX
8
OBJECT021
10
0
20
0
30
0
70
128
71
5
72
2
73
-1
0
VERTEX
8
OBJECT021
10
0
20
0
30
0
70
128
71
-5
72
1
73
6
0
VERTEX
8
OBJECT021
10
0
20
0
30
0
70
128
71
7
72
4
73
-3
0
VERTEX
8
OBJECT021
10
0
20
0
30
0
70
128
71
-7
72
3
73
8
0
VERTEX
8
OBJECT021
10
0
20
0
30
0
70
128
71
8
72
3
73
-2
0
VERTEX
8
OBJECT021
10
0
20
0
30
0
70
128
71
-8
72
2
73
5
0
VERTEX
8
OBJECT021
10
0
20
0
30
0
70
128
71
6
72
1
73
-4
0
VERTEX
8
OBJECT021
10
0
20
0
30
0
70
128
71
-6
72
4
73
7
0
SEQEND
8
OBJECT021
0
POLYLINE
8
OBJECT022
66
1
70
64
71
8
72
12
62
50
0
VERTEX
8
OBJECT022
10
-192.000000
20
-128.000000
30
224.000000
70
192
0
VERTEX
8
OBJECT022
10
-192.000000
20
576.000000
30
224.000000
70
192
0
VERTEX
8
OBJECT022
10
192.000000
20
576.000000
30
224.000000
70
192
0
VERTEX
8
OBJECT022
10
192.000000
20
-128.000000
30
224.000000
70
192
0
VERTEX
8
OBJECT022
10
-192.000000
20
576.000000
30
192.000000
70
192
0
VERTEX
8
OBJECT022
10
-192.000000
20
-128.000000
30
192.000000
70
192
0
VERTEX
8
OBJECT022
10
192.000000
20
-128.000000
30
192.000000
70
192
0
VERTEX
8
OBJECT022
10
192.000000
20
576.000000
30
192.000000
70
192
0
VERTEX
8
OBJECT022
10
0
20
0
30
0
70
128
71
2
72
3
73
-4
0
VERTEX
8
OBJECT022
10
0
20
0
30
0
70
128
71
-2
72
4
73
1
0
VERTEX
8
OBJECT022
10
0
20
0
30
0
70
128
71
6
72
7
73
-8
0
VERTEX
8
OBJECT022
10
0
20
0
30
0
70
128
71
-6
72
8
73
5
0
VERTEX
8
OBJECT022
10
0
20
0
30
0
70
128
71
5
72
2
73
-1
0
VERTEX
8
OBJECT022
10
0
20
0
30
0
70
128
71
-5
72
1
73
6
0
VERTEX
8
OBJECT022
10
0
20
0
30
0
70
128
71
7
72
4
73
-3
0
VERTEX
8
OBJECT022
10
0
20
0
30
0
70
128
71
-7
72
3
73
8
0
VERTEX
8
OBJECT022
10
0
20
0
30
0
70
128
71
8
72
3
73
-2
0
VERTEX
8
OBJECT022
10
0
20
0
30
0
70
128
71
-8
72
2
73
5
0
VERTEX
8
OBJECT022
10
0
20
0
30
0
70
128
71
6
72
1
73
-4
0
VERTEX
8
OBJECT022
10
0
20
0
30
0
70
128
71
-6
72
4
73
7
0
SEQEND
8
OBJECT022
0
POLYLINE
8
OBJECT023
66
1
70
64
71
8
72
12
62
50
0
VERTEX
8
OBJECT023
10
-864.000000
20
-672.000000
30
608.000000
70
192
0
VERTEX
8
OBJECT023
10
-864.000000
20
1056.000000
30
608.000000
70
192
0
VERTEX
8
OBJECT023
10
992.000000
20
1056.000000
30
608.000000
70
192
0
VERTEX
8
OBJECT023
10
992.000000
20
-672.000000
30
608.000000
70
192
0
VERTEX
8
OBJECT023
10
-864.000000
20
1056.000000
30
576.000000
70
192
0
VERTEX
8
OBJECT023
10
-864.000000
20
-672.000000
30
576.000000
70
192
0
VERTEX
8
OBJECT023
10
992.000000
20
-672.000000
30
576.000000
70
192
0
VERTEX
8
OBJECT023
10
992.000000
20
1056.000000
30
576.000000
70
192
0
VERTEX
8
OBJECT023
10
0
20
0
30
0
70
128
71
2
72
3
73
-4
0
VERTEX
8
OBJECT023
10
0
20
0
30
0
70
128
71
-2
72
4
73
1
0
VERTEX
8
OBJECT023
10
0
20
0
30
0
70
128
71
2
72
1
73
-6
0
VERTEX
8
OBJECT023
10
0
20
0
30
0
70
128
71
-2
72
6
73
5
0
VERTEX
8
OBJECT023
10
0
20
0
30
0
70
128
71
4
72
3
73
-8
0
VERTEX
8
OBJECT023
10
0
20
0
30
0
70
128
71
-4
72
8
73
7
0
VERTEX
8
OBJECT023
10
0
20
0
30
0
70
128
71
3
72
2
73
-5
0
VERTEX
8
OBJECT023
10
0
20
0
30
0
70
128
71
-3
72
5
73
8
0
VERTEX
8
OBJECT023
10
0
20
0
30
0
70
128
71
1
72
4
73
-7
0
VERTEX
8
OBJECT023
10
0
20
0
30
0
70
128
71
-1
72
7
73
6
0
VERTEX
8
OBJECT023
10
0
20
0
30
0
70
128
71
6
72
7
73
-8
0
VERTEX
8
OBJECT023
10
0
20
0
30
0
70
128
71
-6
72
8
73
5
0
SEQEND
8
OBJECT023
0
POLYLINE
8
OBJECT024
66
1
70
64
71
8
72
12
62
50
0
VERTEX
8
OBJECT024
10
-864.000000
20
1056.000000
30
-416.000000
70
192
0
VERTEX
8
OBJECT024
10
-864.000000
20
-672.000000
30
-416.000000
70
192
0
VERTEX
8
OBJECT024
10
992.000000
20
-672.000000
30
-416.000000
70
192
0
VERTEX
8
OBJECT024
10
992.000000
20
1056.000000
30
-416.000000
70
192
0
VERTEX
8
OBJECT024
10
-864.000000
20
-672.000000
30
-384.000000
70
192
0
VERTEX
8
OBJECT024
10
-864.000000
20
1056.000000
30
-384.000000
70
192
0
VERTEX
8
OBJECT024
10
992.000000
20
1056.000000
30
-384.000000
70
192
0
VERTEX
8
OBJECT024
10
992.000000
20
-672.000000
30
-384.000000
70
192
0
VERTEX
8
OBJECT024
10
0
20
0
30
0
70
128
71
2
72
3
73
-4
0
VERTEX
8
OBJECT024
10
0
20
0
30
0
70
128
71
-2
72
4
73
1
0
VERTEX
8
OBJECT024
10
0
20
0
30
0
70
128
71
2
72
1
73
-6
0
VERTEX
8
OBJECT024
10
0
20
0
30
0
70
128
71
-2
72
6
73
5
0
VERTEX
8
OBJECT024
10
0
20
0
30
0
70
128
71
4
72
3
73
-8
0
VERTEX
8
OBJECT024
10
0
20
0
30
0
70
128
71
-4
72
8
73
7
0
VERTEX
8
OBJECT024
10
0
20
0
30
0
70
128
71
1
72
4
73
-7
0
VERTEX
8
OBJECT024
10
0
20
0
30
0
70
128
71
-1
72
7
73
6
0
VERTEX
8
OBJECT024
10
0
20
0
30
0
70
128
71
3
72
2
73
-5
0
VERTEX
8
OBJECT024
10
0
20
0
30
0
70
128
71
-3
72
5
73
8
0
VERTEX
8
OBJECT024
10
0
20
0
30
0
70
128
71
6
72
7
73
-8
0
VERTEX
8
OBJECT024
10
0
20
0
30
0
70
128
71
-6
72
8
73
5
0
SEQEND
8
OBJECT024
0
POLYLINE
8
OBJECT025
66
1
70
64
71
8
72
12
62
50
0
VERTEX
8
OBJECT025
10
-864.000000
20
-672.000000
30
576.000000
70
192
0
VERTEX
8
OBJECT025
10
-864.000000
20
-672.000000
30
-384.000000
70
192
0
VERTEX
8
OBJECT025
10
-864.000000
20
1056.000000
30
-384.000000
70
192
0
VERTEX
8
OBJECT025
10
-864.000000
20
1056.000000
30
576.000000
70
192
0
VERTEX
8
OBJECT025
10
-832.000000
20
1056.000000
30
-384.000000
70
192
0
VERTEX
8
OBJECT025
10
-832.000000
20
1056.000000
30
576.000000
70
192
0
VERTEX
8
OBJECT025
10
-832.000000
20
-672.000000
30
-384.000000
70
192
0
VERTEX
8
OBJECT025
10
-832.000000
20
-672.000000
30
576.000000
70
192
0
VERTEX
8
OBJECT025
10
0
20
0
30
0
70
128
71
2
72
3
73
-4
0
VERTEX
8
OBJECT025
10
0
20
0
30
0
70
128
71
-2
72
4
73
1
0
VERTEX
8
OBJECT025
10
0
20
0
30
0
70
128
71
3
72
5
73
-6
0
VERTEX
8
OBJECT025
10
0
20
0
30
0
70
128
71
-3
72
6
73
4
0
VERTEX
8
OBJECT025
10
0
20
0
30
0
70
128
71
2
72
1
73
-8
0
VERTEX
8
OBJECT025
10
0
20
0
30
0
70
128
71
-2
72
8
73
7
0
VERTEX
8
OBJECT025
10
0
20
0
30
0
70
128
71
1
72
4
73
-6
0
VERTEX
8
OBJECT025
10
0
20
0
30
0
70
128
71
-1
72
6
73
8
0
VERTEX
8
OBJECT025
10
0
20
0
30
0
70
128
71
3
72
2
73
-7
0
VERTEX
8
OBJECT025
10
0
20
0
30
0
70
128
71
-3
72
7
73
5
0
VERTEX
8
OBJECT025
10
0
20
0
30
0
70
128
71
5
72
7
73
-8
0
VERTEX
8
OBJECT025
10
0
20
0
30
0
70
128
71
-5
72
8
73
6
0
SEQEND
8
OBJECT025
0
POLYLINE
8
OBJECT026
66
1
70
64
71
8
72
12
62
50
0
VERTEX
8
OBJECT026
10
992.000000
20
1056.000000
30
576.000000
70
192
0
VERTEX
8
OBJECT026
10
992.000000
20
1056.000000
30
-384.000000
70
192
0
VERTEX
8
OBJECT026
10
992.000000
20
-672.000000
30
-384.000000
70
192
0
VERTEX
8
OBJECT026
10
992.000000
20
-672.000000
30
576.000000
70
192
0
VERTEX
8
OBJECT026
10
960.000000
20
1056.000000
30
-384.000000
70
192
0
VERTEX
8
OBJECT026
10
960.000000
20
1056.000000
30
576.000000
70
192
0
VERTEX
8
OBJECT026
10
960.000000
20
-672.000000
30
-384.000000
70
192
0
VERTEX
8
OBJECT026
10
960.000000
20
-672.000000
30
576.000000
70
192
0
VERTEX
8
OBJECT026
10
0
20
0
30
0
70
128
71
2
72
3
73
-4
0
VERTEX
8
OBJECT026
10
0
20
0
30
0
70
128
71
-2
72
4
73
1
0
VERTEX
8
OBJECT026
10
0
20
0
30
0
70
128
71
2
72
1
73
-6
0
VERTEX
8
OBJECT026
10
0
20
0
30
0
70
128
71
-2
72
6
73
5
0
VERTEX
8
OBJECT026
10
0
20
0
30
0
70
128
71
3
72
7
73
-8
0
VERTEX
8
OBJECT026
10
0
20
0
30
0
70
128
71
-3
72
8
73
4
0
VERTEX
8
OBJECT026
10
0
20
0
30
0
70
128
71
1
72
4
73
-8
0
VERTEX
8
OBJECT026
10
0
20
0
30
0
70
128
71
-1
72
8
73
6
0
VERTEX
8
OBJECT026
10
0
20
0
30
0
70
128
71
3
72
2
73
-5
0
VERTEX
8
OBJECT026
10
0
20
0
30
0
70
128
71
-3
72
5
73
7
0
VERTEX
8
OBJECT026
10
0
20
0
30
0
70
128
71
7
72
5
73
-6
0
VERTEX
8
OBJECT026
10
0
20
0
30
0
70
128
71
-7
72
6
73
8
0
SEQEND
8
OBJECT026
0
POLYLINE
8
OBJECT027
66
1
70
64
71
8
72
12
62
50
0
VERTEX
8
OBJECT027
10
-832.000000
20
1056.000000
30
-384.000000
70
192
0
VERTEX
8
OBJECT027
10
960.000000
20
1056.000000
30
-384.000000
70
192
0
VERTEX
8
OBJECT027
10
960.000000
20
1056.000000
30
576.000000
70
192
0
VERTEX
8
OBJECT027
10
-832.000000
20
1056.000000
30
576.000000
70
192
0
VERTEX
8
OBJECT027
10
-832.000000
20
1024.000000
30
576.000000
70
192
0
VERTEX
8
OBJECT027
10
960.000000
20
1024.000000
30
576.000000
70
192
0
VERTEX
8
OBJECT027
10
-832.000000
20
1024.000000
30
-384.000000
70
192
0
VERTEX
8
OBJECT027
10
960.000000
20
1024.000000
30
-384.000000
70
192
0
VERTEX
8
OBJECT027
10
0
20
0
30
0
70
128
71
2
72
3
73
-4
0
VERTEX
8
OBJECT027
10
0
20
0
30
0
70
128
71
-2
72
4
73
1
0
VERTEX
8
OBJECT027
10
0
20
0
30
0
70
128
71
4
72
3
73
-6
0
VERTEX
8
OBJECT027
10
0
20
0
30
0
70
128
71
-4
72
6
73
5
0
VERTEX
8
OBJECT027
10
0
20
0
30
0
70
128
71
1
72
7
73
-8
0
VERTEX
8
OBJECT027
10
0
20
0
30
0
70
128
71
-1
72
8
73
2
0
VERTEX
8
OBJECT027
10
0
20
0
30
0
70
128
71
1
72
4
73
-5
0
VERTEX
8
OBJECT027
10
0
20
0
30
0
70
128
71
-1
72
5
73
7
0
VERTEX
8
OBJECT027
10
0
20
0
30
0
70
128
71
2
72
8
73
-6
0
VERTEX
8
OBJECT027
10
0
20
0
30
0
70
128
71
-2
72
6
73
3
0
VERTEX
8
OBJECT027
10
0
20
0
30
0
70
128
71
7
72
5
73
-6
0
VERTEX
8
OBJECT027
10
0
20
0
30
0
70
128
71
-7
72
6
73
8
0
SEQEND
8
OBJECT027
0
POLYLINE
8
OBJECT028
66
1
70
64
71
8
72
12
62
50
0
VERTEX
8
OBJECT028
10
960.000000
20
-672.000000
30
-384.000000
70
192
0
VERTEX
8
OBJECT028
10
-832.000000
20
-672.000000
30
-384.000000
70
192
0
VERTEX
8
OBJECT028
10
-832.000000
20
-672.000000
30
576.000000
70
192
0
VERTEX
8
OBJECT028
10
960.000000
20
-672.000000
30
576.000000
70
192
0
VERTEX
8
OBJECT028
10
-832.000000
20
-640.000000
30
576.000000
70
192
0
VERTEX
8
OBJECT028
10
960.000000
20
-640.000000
30
576.000000
70
192
0
VERTEX
8
OBJECT028
10
-832.000000
20
-640.000000
30
-384.000000
70
192
0
VERTEX
8
OBJECT028
10
960.000000
20
-640.000000
30
-384.000000
70
192
0
VERTEX
8
OBJECT028
10
0
20
0
30
0
70
128
71
2
72
3
73
-4
0
VERTEX
8
OBJECT028
10
0
20
0
30
0
70
128
71
-2
72
4
73
1
0
VERTEX
8
OBJECT028
10
0
20
0
30
0
70
128
71
3
72
5
73
-6
0
VERTEX
8
OBJECT028
10
0
20
0
30
0
70
128
71
-3
72
6
73
4
0
VERTEX
8
OBJECT028
10
0
20
0
30
0
70
128
71
2
72
1
73
-8
0
VERTEX
8
OBJECT028
10
0
20
0
30
0
70
128
71
-2
72
8
73
7
0
VERTEX
8
OBJECT028
10
0
20
0
30
0
70
128
71
2
72
7
73
-5
0
VERTEX
8
OBJECT028
10
0
20
0
30
0
70
128
71
-2
72
5
73
3
0
VERTEX
8
OBJECT028
10
0
20
0
30
0
70
128
71
1
72
4
73
-6
0
VERTEX
8
OBJECT028
10
0
20
0
30
0
70
128
71
-1
72
6
73
8
0
VERTEX
8
OBJECT028
10
0
20
0
30
0
70
128
71
8
72
6
73
-5
0
VERTEX
8
OBJECT028
10
0
20
0
30
0
70
128
71
-8
72
5
73
7
0
SEQEND
8
OBJECT028
0
POLYLINE
8
OBJECT029
66
1
70
64
71
8
72
12
62
50
0
VERTEX
8
OBJECT029
10
9.000000
20
-128.000000
30
110.000000
70
192
0
VERTEX
8
OBJECT029
10
9.000000
20
-127.000000
30
110.000000
70
192
0
VERTEX
8
OBJECT029
10
14.000000
20
-127.000000
30
110.000000
70
192
0
VERTEX
8
OBJECT029
10
14.000000
20
-128.000000
30
110.000000
70
192
0
VERTEX
8
OBJECT029
10
9.000000
20
-127.000000
30
105.000000
70
192
0
VERTEX
8
OBJECT029
10
9.000000
20
-128.000000
30
105.000000
70
192
0
VERTEX
8
OBJECT029
10
14.000000
20
-128.000000
30
105.000000
70
192
0
VERTEX
8
OBJECT029
10
14.000000
20
-127.000000
30
105.000000
70
192
0
VERTEX
8
OBJECT029
10
0
20
0
30
0
70
128
71
2
72
3
73
-4
0
VERTEX
8
OBJECT029
10
0
20
0
30
0
70
128
71
-2
72
4
73
1
0
VERTEX
8
OBJECT029
10
0
20
0
30
0
70
128
71
6
72
7
73
-8
0
VERTEX
8
OBJECT029
10
0
20
0
30
0
70
128
71
-6
72
8
73
5
0
VERTEX
8
OBJECT029
10
0
20
0
30
0
70
128
71
5
72
2
73
-1
0
VERTEX
8
OBJECT029
10
0
20
0
30
0
70
128
71
-5
72
1
73
6
0
VERTEX
8
OBJECT029
10
0
20
0
30
0
70
128
71
7
72
4
73
-3
0
VERTEX
8
OBJECT029
10
0
20
0
30
0
70
128
71
-7
72
3
73
8
0
VERTEX
8
OBJECT029
10
0
20
0
30
0
70
128
71
8
72
3
73
-2
0
VERTEX
8
OBJECT029
10
0
20
0
30
0
70
128
71
-8
72
2
73
5
0
VERTEX
8
OBJECT029
10
0
20
0
30
0
70
128
71
6
72
1
73
-4
0
VERTEX
8
OBJECT029
10
0
20
0
30
0
70
128
71
-6
72
4
73
7
0
SEQEND
8
OBJECT029
0
POLYLINE
8
OBJECT030
66
1
70
64
71
8
72
12
62
50
0
VERTEX
8
OBJECT030
10
-42.000000
20
-128.000000
30
139.000000
70
192
0
VERTEX
8
OBJECT030
10
-42.000000
20
-127.000000
30
139.000000
70
192
0
VERTEX
8
OBJECT030
10
-30.000000
20
-127.000000
30
139.000000
70
192
0
VERTEX
8
OBJECT030
10
-30.000000
20
-128.000000
30
139.000000
70
192
0
VERTEX
8
OBJECT030
10
-42.000000
20
-127.000000
30
127.000000
70
192
0
VERTEX
8
OBJECT030
10
-42.000000
20
-128.000000
30
127.000000
70
192
0
VERTEX
8
OBJECT030
10
-30.000000
20
-128.000000
30
127.000000
70
192
0
VERTEX
8
OBJECT030
10
-30.000000
20
-127.000000
30
127.000000
70
192
0
VERTEX
8
OBJECT030
10
0
20
0
30
0
70
128
71
2
72
3
73
-4
0
VERTEX
8
OBJECT030
10
0
20
0
30
0
70
128
71
-2
72
4
73
1
0
VERTEX
8
OBJECT030
10
0
20
0
30
0
70
128
71
6
72
7
73
-8
0
VERTEX
8
OBJECT030
10
0
20
0
30
0
70
128
71
-6
72
8
73
5
0
VERTEX
8
OBJECT030
10
0
20
0
30
0
70
128
71
5
72
2
73
-1
0
VERTEX
8
OBJECT030
10
0
20
0
30
0
70
128
71
-5
72
1
73
6
0
VERTEX
8
OBJECT030
10
0
20
0
30
0
70
128
71
7
72
4
73
-3
0
VERTEX
8
OBJECT030
10
0
20
0
30
0
70
128
71
-7
72
3
73
8
0
VERTEX
8
OBJECT030
10
0
20
0
30
0
70
128
71
8
72
3
73
-2
0
VERTEX
8
OBJECT030
10
0
20
0
30
0
70
128
71
-8
72
2
73
5
0
VERTEX
8
OBJECT030
10
0
20
0
30
0
70
128
71
6
72
1
73
-4
0
VERTEX
8
OBJECT030
10
0
20
0
30
0
70
128
71
-6
72
4
73
7
0
SEQEND
8
OBJECT030
0
POLYLINE
8
OBJECT031
66
1
70
64
71
8
72
12
62
50
0
VERTEX
8
OBJECT031
10
-39.000000
20
-128.000000
30
82.000000
70
192
0
VERTEX
8
OBJECT031
10
-39.000000
20
-127.000000
30
82.000000
70
192
0
VERTEX
8
OBJECT031
10
-24.000000
20
-127.000000
30
82.000000
70
192
0
VERTEX
8
OBJECT031
10
-24.000000
20
-128.000000
30
82.000000
70
192
0
VERTEX
8
OBJECT031
10
-39.000000
20
-127.000000
30
67.000000
70
192
0
VERTEX
8
OBJECT031
10
-39.000000
20
-128.000000
30
67.000000
70
192
0
VERTEX
8
OBJECT031
10
-24.000000
20
-128.000000
30
67.000000
70
192
0
VERTEX
8
OBJECT031
10
-24.000000
20
-127.000000
30
67.000000
70
192
0
VERTEX
8
OBJECT031
10
0
20
0
30
0
70
128
71
2
72
3
73
-4
0
VERTEX
8
OBJECT031
10
0
20
0
30
0
70
128
71
-2
72
4
73
1
0
VERTEX
8
OBJECT031
10
0
20
0
30
0
70
128
71
6
72
7
73
-8
0
VERTEX
8
OBJECT031
10
0
20
0
30
0
70
128
71
-6
72
8
73
5
0
VERTEX
8
OBJECT031
10
0
20
0
30
0
70
128
71
5
72
2
73
-1
0
VERTEX
8
OBJECT031
10
0
20
0
30
0
70
128
71
-5
72
1
73
6
0
VERTEX
8
OBJECT031
10
0
20
0
30
0
70
128
71
7
72
4
73
-3
0
VERTEX
8
OBJECT031
10
0
20
0
30
0
70
128
71
-7
72
3
73
8
0
VERTEX
8
OBJECT031
10
0
20
0
30
0
70
128
71
8
72
3
73
-2
0
VERTEX
8
OBJECT031
10
0
20
0
30
0
70
128
71
-8
72
2
73
5
0
VERTEX
8
OBJECT031
10
0
20
0
30
0
70
128
71
6
72
1
73
-4
0
VERTEX
8
OBJECT031
10
0
20
0
30
0
70
128
71
-6
72
4
73
7
0
SEQEND
8
OBJECT031
0
POLYLINE
8
OBJECT032
66
1
70
64
71
8
72
12
62
50
0
VERTEX
8
OBJECT032
10
-92.000000
20
-128.000000
30
111.000000
70
192
0
VERTEX
8
OBJECT032
10
-92.000000
20
-127.000000
30
111.000000
70
192
0
VERTEX
8
OBJECT032
10
-74.000000
20
-127.000000
30
111.000000
70
192
0
VERTEX
8
OBJECT032
10
-74.000000
20
-128.000000
30
111.000000
70
192
0
VERTEX
8
OBJECT032
10
-92.000000
20
-127.000000
30
93.000000
70
192
0
VERTEX
8
OBJECT032
10
-92.000000
20
-128.000000
30
93.000000
70
192
0
VERTEX
8
OBJECT032
10
-74.000000
20
-128.000000
30
93.000000
70
192
0
VERTEX
8
OBJECT032
10
-74.000000
20
-127.000000
30
93.000000
70
192
0
VERTEX
8
OBJECT032
10
0
20
0
30
0
70
128
71
2
72
3
73
-4
0
VERTEX
8
OBJECT032
10
0
20
0
30
0
70
128
71
-2
72
4
73
1
0
VERTEX
8
OBJECT032
10
0
20
0
30
0
70
128
71
6
72
7
73
-8
0
VERTEX
8
OBJECT032
10
0
20
0
30
0
70
128
71
-6
72
8
73
5
0
VERTEX
8
OBJECT032
10
0
20
0
30
0
70
128
71
5
72
2
73
-1
0
VERTEX
8
OBJECT032
10
0
20
0
30
0
70
128
71
-5
72
1
73
6
0
VERTEX
8
OBJECT032
10
0
20
0
30
0
70
128
71
7
72
4
73
-3
0
VERTEX
8
OBJECT032
10
0
20
0
30
0
70
128
71
-7
72
3
73
8
0
VERTEX
8
OBJECT032
10
0
20
0
30
0
70
128
71
8
72
3
73
-2
0
VERTEX
8
OBJECT032
10
0
20
0
30
0
70
128
71
-8
72
2
73
5
0
VERTEX
8
OBJECT032
10
0
20
0
30
0
70
128
71
6
72
1
73
-4
0
VERTEX
8
OBJECT032
10
0
20
0
30
0
70
128
71
-6
72
4
73
7
0
SEQEND
8
OBJECT032
0
POLYLINE
8
OBJECT033
66
1
70
64
71
8
72
12
62
50
0
VERTEX
8
OBJECT033
10
153.000000
20
-128.000000
30
81.000000
70
192
0
VERTEX
8
OBJECT033
10
153.000000
20
-127.000000
30
81.000000
70
192
0
VERTEX
8
OBJECT033
10
158.000000
20
-127.000000
30
81.000000
70
192
0
VERTEX
8
OBJECT033
10
158.000000
20
-128.000000
30
81.000000
70
192
0
VERTEX
8
OBJECT033
10
153.000000
20
-127.000000
30
76.000000
70
192
0
VERTEX
8
OBJECT033
10
153.000000
20
-128.000000
30
76.000000
70
192
0
VERTEX
8
OBJECT033
10
158.000000
20
-128.000000
30
76.000000
70
192
0
VERTEX
8
OBJECT033
10
158.000000
20
-127.000000
30
76.000000
70
192
0
VERTEX
8
OBJECT033
10
0
20
0
30
0
70
128
71
2
72
3
73
-4
0
VERTEX
8
OBJECT033
10
0
20
0
30
0
70
128
71
-2
72
4
73
1
0
VERTEX
8
OBJECT033
10
0
20
0
30
0
70
128
71
6
72
7
73
-8
0
VERTEX
8
OBJECT033
10
0
20
0
30
0
70
128
71
-6
72
8
73
5
0
VERTEX
8
OBJECT033
10
0
20
0
30
0
70
128
71
5
72
2
73
-1
0
VERTEX
8
OBJECT033
10
0
20
0
30
0
70
128
71
-5
72
1
73
6
0
VERTEX
8
OBJECT033
10
0
20
0
30
0
70
128
71
7
72
4
73
-3
0
VERTEX
8
OBJECT033
10
0
20
0
30
0
70
128
71
-7
72
3
73
8
0
VERTEX
8
OBJECT033
10
0
20
0
30
0
70
128
71
8
72
3
73
-2
0
VERTEX
8
OBJECT033
10
0
20
0
30
0
70
128
71
-8
72
2
73
5
0
VERTEX
8
OBJECT033
10
0
20
0
30
0
70
128
71
6
72
1
73
-4
0
VERTEX
8
OBJECT033
10
0
20
0
30
0
70
128
71
-6
72
4
73
7
0
SEQEND
8
OBJECT033
0
POLYLINE
8
OBJECT034
66
1
70
64
71
8
72
12
62
50
0
VERTEX
8
OBJECT034
10
-128.000000
20
-192.000000
30
160.000000
70
192
0
VERTEX
8
OBJECT034
10
-128.000000
20
-128.000000
30
160.000000
70
192
0
VERTEX
8
OBJECT034
10
128.000000
20
-128.000000
30
160.000000
70
192
0
VERTEX
8
OBJECT034
10
128.000000
20
-192.000000
30
160.000000
70
192
0
VERTEX
8
OBJECT034
10
-128.000000
20
-128.000000
30
32.000000
70
192
0
VERTEX
8
OBJECT034
10
-128.000000
20
-192.000000
30
32.000000
70
192
0
VERTEX
8
OBJECT034
10
128.000000
20
-192.000000
30
32.000000
70
192
0
VERTEX
8
OBJECT034
10
128.000000
20
-128.000000
30
32.000000
70
192
0
VERTEX
8
OBJECT034
10
0
20
0
30
0
70
128
71
2
72
3
73
-4
0
VERTEX
8
OBJECT034
10
0
20
0
30
0
70
128
71
-2
72
4
73
1
0
VERTEX
8
OBJECT034
10
0
20
0
30
0
70
128
71
6
72
7
73
-8
0
VERTEX
8
OBJECT034
10
0
20
0
30
0
70
128
71
-6
72
8
73
5
0
VERTEX
8
OBJECT034
10
0
20
0
30
0
70
128
71
5
72
2
73
-1
0
VERTEX
8
OBJECT034
10
0
20
0
30
0
70
128
71
-5
72
1
73
6
0
VERTEX
8
OBJECT034
10
0
20
0
30
0
70
128
71
7
72
4
73
-3
0
VERTEX
8
OBJECT034
10
0
20
0
30
0
70
128
71
-7
72
3
73
8
0
VERTEX
8
OBJECT034
10
0
20
0
30
0
70
128
71
8
72
3
73
-2
0
VERTEX
8
OBJECT034
10
0
20
0
30
0
70
128
71
-8
72
2
73
5
0
VERTEX
8
OBJECT034
10
0
20
0
30
0
70
128
71
6
72
1
73
-4
0
VERTEX
8
OBJECT034
10
0
20
0
30
0
70
128
71
-6
72
4
73
7
0
SEQEND
8
OBJECT034
0
POLYLINE
8
OBJECT035
66
1
70
64
71
8
72
12
62
50
0
VERTEX
8
OBJECT035
10
-192.000000
20
-192.000000
30
192.000000
70
192
0
VERTEX
8
OBJECT035
10
-192.000000
20
-128.000000
30
192.000000
70
192
0
VERTEX
8
OBJECT035
10
-128.000000
20
-128.000000
30
192.000000
70
192
0
VERTEX
8
OBJECT035
10
-128.000000
20
-192.000000
30
192.000000
70
192
0
VERTEX
8
OBJECT035
10
-192.000000
20
-128.000000
30
0.000000
70
192
0
VERTEX
8
OBJECT035
10
-192.000000
20
-192.000000
30
0.000000
70
192
0
VERTEX
8
OBJECT035
10
-128.000000
20
-192.000000
30
0.000000
70
192
0
VERTEX
8
OBJECT035
10
-128.000000
20
-128.000000
30
0.000000
70
192
0
VERTEX
8
OBJECT035
10
0
20
0
30
0
70
128
71
2
72
3
73
-4
0
VERTEX
8
OBJECT035
10
0
20
0
30
0
70
128
71
-2
72
4
73
1
0
VERTEX
8
OBJECT035
10
0
20
0
30
0
70
128
71
6
72
7
73
-8
0
VERTEX
8
OBJECT035
10
0
20
0
30
0
70
128
71
-6
72
8
73
5
0
VERTEX
8
OBJECT035
10
0
20
0
30
0
70
128
71
5
72
2
73
-1
0
VERTEX
8
OBJECT035
10
0
20
0
30
0
70
128
71
-5
72
1
73
6
0
VERTEX
8
OBJECT035
10
0
20
0
30
0
70
128
71
7
72
4
73
-3
0
VERTEX
8
OBJECT035
10
0
20
0
30
0
70
128
71
-7
72
3
73
8
0
VERTEX
8
OBJECT035
10
0
20
0
30
0
70
128
71
8
72
3
73
-2
0
VERTEX
8
OBJECT035
10
0
20
0
30
0
70
128
71
-8
72
2
73
5
0
VERTEX
8
OBJECT035
10
0
20
0
30
0
70
128
71
6
72
1
73
-4
0
VERTEX
8
OBJECT035
10
0
20
0
30
0
70
128
71
-6
72
4
73
7
0
SEQEND
8
OBJECT035
0
ENDSEC
0
EOF
